<svg width="10" height="6" viewBox="0 0 10 6" fill="none" xmlns="http://www.w3.org/2000/svg">
<path d="M5.4733 3.93334C5.41132 3.99583 5.33759 4.04543 5.25635 4.07927C5.17511 4.11312 5.08797 4.13054 4.99996 4.13054C4.91196 4.13054 4.82482 4.11312 4.74358 4.07927C4.66234 4.04543 4.58861 3.99583 4.52663 3.93334L1.47329 0.873344C1.41132 0.810859 1.33758 0.761262 1.25634 0.727416C1.1751 0.69357 1.08797 0.676145 0.999959 0.676145C0.911951 0.676145 0.824814 0.69357 0.743575 0.727416C0.662335 0.761262 0.588601 0.810859 0.526626 0.873344C0.402458 0.998253 0.332764 1.16722 0.332764 1.34334C0.332764 1.51947 0.402458 1.68844 0.526626 1.81334L3.58663 4.87335C3.96163 5.24788 4.46996 5.45825 4.99996 5.45825C5.52997 5.45825 6.0383 5.24788 6.4133 4.87335L9.4733 1.81334C9.59646 1.68917 9.6659 1.52157 9.66664 1.34668C9.66714 1.25894 9.65033 1.17196 9.61715 1.09074C9.58397 1.00951 9.53509 0.935638 9.4733 0.873344C9.41133 0.810859 9.33759 0.761262 9.25635 0.727416C9.17511 0.69357 9.08798 0.676145 8.99997 0.676145C8.91196 0.676145 8.82482 0.69357 8.74358 0.727416C8.66234 0.761262 8.58861 0.810859 8.52663 0.873344L5.4733 3.93334Z" fill="#FD9222"/>
</svg>
